<?xml version="1.0" encoding="UTF-8" standalone="no"?>
<!DOCTYPE svg PUBLIC "-//W3C//DTD SVG 1.1//EN" "http://www.w3.org/Graphics/SVG/1.1/DTD/svg11.dtd">
<svg width="100%" height="100%" viewBox="0 0 2048 1536" version="1.1" xmlns="http://www.w3.org/2000/svg" xmlns:xlink="http://www.w3.org/1999/xlink" xml:space="preserve" xmlns:serif="http://www.serif.com/" style="fill-rule:evenodd;clip-rule:evenodd;stroke-linejoin:round;stroke-miterlimit:2;">
    <g transform="matrix(2.98154,0,0,2.98154,-3387.44,-995.672)">
        <g transform="matrix(1.14867,0,0,1.07294,-223.203,-83.3522)">
            <path d="M1284.07,842.247C1350.77,603.687 1450.97,408.965 1629.43,388.93C1556.03,615.701 1602.92,751.779 1718.55,842.247C1601.6,791.286 1520.39,654.994 1556.7,459.142C1469.04,500.656 1355.87,662.279 1284.07,842.247Z" style="fill:#B13978;"/>
        </g>
        <path d="M1521.38,497.441C1521.38,497.441 1473.23,564.776 1513.25,666.606C1540.6,736.189 1620.98,776.553 1620.98,776.553C1620.98,776.553 1564.24,725.335 1535.74,657.193C1501.39,575.086 1521.38,497.441 1521.38,497.441Z" style="fill:#B13978;"/>
        <g transform="matrix(0.850488,0.337057,-0.58096,1.46592,665.596,-820.756)">
            <path d="M1284.07,839.198C1284.07,839.198 1362.04,736.972 1465.69,700.231C1625.96,643.421 1696.25,573.05 1726.61,535.369C1726.61,535.369 1569.77,610.378 1497.78,639.116C1420.28,670.054 1345.13,690.023 1284.07,839.198Z" style="fill:#B13978;"/>
        </g>
    </g>
</svg>
